<?xml version="1.0" encoding="UTF-8" standalone="no"?>
<svg xmlns="http://www.w3.org/2000/svg" xmlns:xlink="http://www.w3.org/1999/xlink" width="800" height="600" viewBox="0 0 800 600">
  <!-- Hintergrund -->
  <rect width="800" height="600" fill="#F9F9F9" />
  
  <!-- Titel -->
  <text x="400" y="50" font-family="Arial, sans-serif" font-size="24" font-weight="bold" text-anchor="middle" fill="#333">VisionAssist Systemarchitektur</text>
  
  <!-- Nutzerschicht -->
  <rect x="50" y="100" width="700" height="80" rx="10" fill="#E3F2FD" stroke="#1565C0" stroke-width="2" />
  <text x="400" y="145" font-family="Arial, sans-serif" font-size="18" font-weight="bold" text-anchor="middle" fill="#1565C0">Nutzerinteraktionsschicht</text>
  
  <!-- Nutzerschicht-Elemente -->
  <rect x="80" y="115" width="120" height="50" rx="5" fill="#BBDEFB" stroke="#1565C0" stroke-width="1" />
  <text x="140" y="145" font-family="Arial, sans-serif" font-size="12" font-weight="bold" text-anchor="middle">Spracheingabe</text>
  
  <rect x="220" y="115" width="120" height="50" rx="5" fill="#BBDEFB" stroke="#1565C0" stroke-width="1" />
  <text x="280" y="145" font-family="Arial, sans-serif" font-size="12" font-weight="bold" text-anchor="middle">Tastatureingabe</text>
  
  <rect x="360" y="115" width="120" height="50" rx="5" fill="#BBDEFB" stroke="#1565C0" stroke-width="1" />
  <text x="420" y="145" font-family="Arial, sans-serif" font-size="12" font-weight="bold" text-anchor="middle">Touch/Gesten</text>
  
  <rect x="500" y="115" width="120" height="50" rx="5" fill="#BBDEFB" stroke="#1565C0" stroke-width="1" />
  <text x="560" y="145" font-family="Arial, sans-serif" font-size="12" font-weight="bold" text-anchor="middle">Braillezeile</text>
  
  <!-- KI-Assistentin -->
  <rect x="250" y="200" width="300" height="80" rx="10" fill="#E8F5E9" stroke="#2E7D32" stroke-width="2" />
  <text x="400" y="245" font-family="Arial, sans-serif" font-size="18" font-weight="bold" text-anchor="middle" fill="#2E7D32">KI-Assistentin</text>
  
  <!-- KI-Kernmodule -->
  <rect x="50" y="300" width="700" height="100" rx="10" fill="#FFF3E0" stroke="#E65100" stroke-width="2" />
  <text x="400" y="345" font-family="Arial, sans-serif" font-size="18" font-weight="bold" text-anchor="middle" fill="#E65100">KI-Kernmodule</text>
  
  <!-- KI-Kernmodule-Elemente -->
  <rect x="70" y="315" width="120" height="70" rx="5" fill="#FFE0B2" stroke="#E65100" stroke-width="1" />
  <text x="130" y="340" font-family="Arial, sans-serif" font-size="12" font-weight="bold" text-anchor="middle">Sprachverständnis</text>
  <text x="130" y="360" font-family="Arial, sans-serif" font-size="10" text-anchor="middle">NLP-Engine</text>
  
  <rect x="210" y="315" width="120" height="70" rx="5" fill="#FFE0B2" stroke="#E65100" stroke-width="1" />
  <text x="270" y="340" font-family="Arial, sans-serif" font-size="12" font-weight="bold" text-anchor="middle">Kontextanalyse</text>
  <text x="270" y="360" font-family="Arial, sans-serif" font-size="10" text-anchor="middle">Semantisches Parsing</text>
  
  <rect x="350" y="315" width="120" height="70" rx="5" fill="#FFE0B2" stroke="#E65100" stroke-width="1" />
  <text x="410" y="340" font-family="Arial, sans-serif" font-size="12" font-weight="bold" text-anchor="middle">Content-Analyse</text>
  <text x="410" y="360" font-family="Arial, sans-serif" font-size="10" text-anchor="middle">UI-Interpretation</text>
  
  <rect x="490" y="315" width="120" height="70" rx="5" fill="#FFE0B2" stroke="#E65100" stroke-width="1" />
  <text x="550" y="340" font-family="Arial, sans-serif" font-size="12" font-weight="bold" text-anchor="middle">Lernmodul</text>
  <text x="550" y="360" font-family="Arial, sans-serif" font-size="10" text-anchor="middle">Verhaltensanalyse</text>
  
  <rect x="630" y="315" width="100" height="70" rx="5" fill="#FFE0B2" stroke="#E65100" stroke-width="1" />
  <text x="680" y="340" font-family="Arial, sans-serif" font-size="12" font-weight="bold" text-anchor="middle">Automation</text>
  <text x="680" y="360" font-family="Arial, sans-serif" font-size="10" text-anchor="middle">Workflow-Engine</text>
  
  <!-- Anwendungsintegration -->
  <rect x="50" y="420" width="700" height="100" rx="10" fill="#F3E5F5" stroke="#6A1B9A" stroke-width="2" />
  <text x="400" y="465" font-family="Arial, sans-serif" font-size="18" font-weight="bold" text-anchor="middle" fill="#6A1B9A">Anwendungsintegration</text>
  
  <!-- Anwendungsintegration-Elemente -->
  <rect x="60" y="435" width="100" height="70" rx="5" fill="#E1BEE7" stroke="#6A1B9A" stroke-width="1" />
  <text x="110" y="460" font-family="Arial, sans-serif" font-size="12" font-weight="bold" text-anchor="middle">Web-Browser</text>
  <text x="110" y="480" font-family="Arial, sans-serif" font-size="10" text-anchor="middle">ARIA-Analyse</text>
  
  <rect x="170" y="435" width="100" height="70" rx="5" fill="#E1BEE7" stroke="#6A1B9A" stroke-width="1" />
  <text x="220" y="460" font-family="Arial, sans-serif" font-size="12" font-weight="bold" text-anchor="middle">Office-Suite</text>
  <text x="220" y="480" font-family="Arial, sans-serif" font-size="10" text-anchor="middle">Dokument-API</text>
  
  <rect x="280" y="435" width="100" height="70" rx="5" fill="#E1BEE7" stroke="#6A1B9A" stroke-width="1" />
  <text x="330" y="460" font-family="Arial, sans-serif" font-size="12" font-weight="bold" text-anchor="middle">Social Media</text>
  <text x="330" y="480" font-family="Arial, sans-serif" font-size="10" text-anchor="middle">Platform-APIs</text>
  
  <rect x="390" y="435" width="100" height="70" rx="5" fill="#E1BEE7" stroke="#6A1B9A" stroke-width="1" />
  <text x="440" y="460" font-family="Arial, sans-serif" font-size="12" font-weight="bold" text-anchor="middle">Medien-Apps</text>
  <text x="440" y="480" font-family="Arial, sans-serif" font-size="10" text-anchor="middle">Videobeschreibung</text>
  
  <rect x="500" y="435" width="100" height="70" rx="5" fill="#E1BEE7" stroke="#6A1B9A" stroke-width="1" />
  <text x="550" y="460" font-family="Arial, sans-serif" font-size="12" font-weight="bold" text-anchor="middle">OS-Integration</text>
  <text x="550" y="480" font-family="Arial, sans-serif" font-size="10" text-anchor="middle">Win/macOS/Linux</text>
  
  <rect x="610" y="435" width="130" height="70" rx="5" fill="#E1BEE7" stroke="#6A1B9A" stroke-width="1" />
  <text x="675" y="460" font-family="Arial, sans-serif" font-size="12" font-weight="bold" text-anchor="middle">IoT-Steuerung</text>
  <text x="675" y="480" font-family="Arial, sans-serif" font-size="10" text-anchor="middle">Smart Home Devices</text>
  
  <!-- Basisinfrastruktur -->
  <rect x="50" y="540" width="335" height="40" rx="10" fill="#E0F7FA" stroke="#006064" stroke-width="2" />
  <text x="217" y="565" font-family="Arial, sans-serif" font-size="14" font-weight="bold" text-anchor="middle" fill="#006064">Lokale Verarbeitung &amp; Caching</text>
  
  <rect x="415" y="540" width="335" height="40" rx="10" fill="#FFEBEE" stroke="#B71C1C" stroke-width="2" />
  <text x="582" y="565" font-family="Arial, sans-serif" font-size="14" font-weight="bold" text-anchor="middle" fill="#B71C1C">Sicherheit &amp; Datenschutz</text>
  
  <!-- Verbindungslinien -->
  <!-- Nutzerschicht zu KI-Assistentin -->
  <path d="M400 180 L400 200" stroke="#333" stroke-width="2" fill="none" />
  <polygon points="395,195 400,205 405,195" fill="#333" />
  
  <!-- KI-Assistentin zu KI-Kernmodule -->
  <path d="M400 280 L400 300" stroke="#333" stroke-width="2" fill="none" />
  <polygon points="395,295 400,305 405,295" fill="#333" />
  
  <!-- KI-Kernmodule zu Anwendungsintegration -->
  <path d="M400 400 L400 420" stroke="#333" stroke-width="2" fill="none" />
  <polygon points="395,415 400,425 405,415" fill="#333" />
  
  <!-- Anwendungsintegration zu Basis -->
  <path d="M400 520 L400 535" stroke="#333" stroke-width="2" fill="none" stroke-dasharray="5,3" />
  <path d="M217 520 L217 540" stroke="#333" stroke-width="2" fill="none" stroke-dasharray="5,3" />
  <path d="M582 520 L582 540" stroke="#333" stroke-width="2" fill="none" stroke-dasharray="5,3" />
</svg>

